<mxfile host="app.diagrams.net" agent="Mozilla/5.0 (Windows NT 10.0; Win64; x64) AppleWebKit/537.36 (KHTML, like Gecko) Chrome/126.0.0.0 Safari/537.36" version="24.7.4">
  <diagram id="dg8KnVI7PiVwPOLmXi8e" name="Page-1">
    <mxGraphModel dx="1050" dy="603" grid="1" gridSize="10" guides="1" tooltips="1" connect="1" arrows="1" fold="1" page="1" pageScale="1" pageWidth="850" pageHeight="1100" math="0" shadow="0">
      <root>
        <mxCell id="0" />
        <mxCell id="1" parent="0" />
        <mxCell id="Vq608xrrPBZyVDfuqfxu-3" value="Authorized user" style="shape=umlActor;verticalLabelPosition=bottom;verticalAlign=top;html=1;outlineConnect=0;" vertex="1" parent="1">
          <mxGeometry x="150" y="340" width="30" height="60" as="geometry" />
        </mxCell>
        <mxCell id="Vq608xrrPBZyVDfuqfxu-4" value="un Authorized user" style="shape=umlActor;verticalLabelPosition=bottom;verticalAlign=top;html=1;outlineConnect=0;" vertex="1" parent="1">
          <mxGeometry x="150" y="620" width="30" height="60" as="geometry" />
        </mxCell>
        <mxCell id="Vq608xrrPBZyVDfuqfxu-45" value="" style="edgeStyle=orthogonalEdgeStyle;rounded=0;orthogonalLoop=1;jettySize=auto;html=1;" edge="1" parent="1" source="Vq608xrrPBZyVDfuqfxu-5" target="Vq608xrrPBZyVDfuqfxu-44">
          <mxGeometry relative="1" as="geometry" />
        </mxCell>
        <mxCell id="Vq608xrrPBZyVDfuqfxu-47" value="" style="edgeStyle=orthogonalEdgeStyle;rounded=0;orthogonalLoop=1;jettySize=auto;html=1;" edge="1" parent="1" source="Vq608xrrPBZyVDfuqfxu-5" target="Vq608xrrPBZyVDfuqfxu-46">
          <mxGeometry relative="1" as="geometry" />
        </mxCell>
        <mxCell id="Vq608xrrPBZyVDfuqfxu-48" value="" style="edgeStyle=orthogonalEdgeStyle;rounded=0;orthogonalLoop=1;jettySize=auto;html=1;" edge="1" parent="1" source="Vq608xrrPBZyVDfuqfxu-5" target="Vq608xrrPBZyVDfuqfxu-46">
          <mxGeometry relative="1" as="geometry" />
        </mxCell>
        <mxCell id="Vq608xrrPBZyVDfuqfxu-49" value="" style="edgeStyle=orthogonalEdgeStyle;rounded=0;orthogonalLoop=1;jettySize=auto;html=1;" edge="1" parent="1" source="Vq608xrrPBZyVDfuqfxu-5" target="Vq608xrrPBZyVDfuqfxu-46">
          <mxGeometry relative="1" as="geometry" />
        </mxCell>
        <mxCell id="Vq608xrrPBZyVDfuqfxu-51" value="" style="edgeStyle=orthogonalEdgeStyle;rounded=0;orthogonalLoop=1;jettySize=auto;html=1;entryX=0.031;entryY=0.803;entryDx=0;entryDy=0;entryPerimeter=0;" edge="1" parent="1">
          <mxGeometry relative="1" as="geometry">
            <mxPoint x="720" y="470" as="sourcePoint" />
            <mxPoint x="665" y="380" as="targetPoint" />
            <Array as="points">
              <mxPoint x="700" y="470" />
              <mxPoint x="700" y="380" />
            </Array>
          </mxGeometry>
        </mxCell>
        <mxCell id="Vq608xrrPBZyVDfuqfxu-5" value="System" style="shape=umlActor;verticalLabelPosition=bottom;verticalAlign=top;html=1;outlineConnect=0;" vertex="1" parent="1">
          <mxGeometry x="720" y="440" width="40" height="60" as="geometry" />
        </mxCell>
        <mxCell id="Vq608xrrPBZyVDfuqfxu-14" value="Check Availability" style="rounded=0;whiteSpace=wrap;html=1;" vertex="1" parent="1">
          <mxGeometry x="360" y="240" width="125" height="30" as="geometry" />
        </mxCell>
        <mxCell id="Vq608xrrPBZyVDfuqfxu-18" value="Book Hall" style="rounded=0;whiteSpace=wrap;html=1;" vertex="1" parent="1">
          <mxGeometry x="360" y="285" width="125" height="30" as="geometry" />
        </mxCell>
        <mxCell id="Vq608xrrPBZyVDfuqfxu-19" value="Make Payment" style="rounded=0;whiteSpace=wrap;html=1;" vertex="1" parent="1">
          <mxGeometry x="360" y="330" width="125" height="30" as="geometry" />
        </mxCell>
        <mxCell id="Vq608xrrPBZyVDfuqfxu-20" value="View Booking History" style="rounded=0;whiteSpace=wrap;html=1;" vertex="1" parent="1">
          <mxGeometry x="360" y="380" width="125" height="30" as="geometry" />
        </mxCell>
        <mxCell id="Vq608xrrPBZyVDfuqfxu-21" value="Cancel Booking" style="rounded=0;whiteSpace=wrap;html=1;" vertex="1" parent="1">
          <mxGeometry x="360" y="420" width="125" height="30" as="geometry" />
        </mxCell>
        <mxCell id="Vq608xrrPBZyVDfuqfxu-22" value="Modify Booking" style="rounded=0;whiteSpace=wrap;html=1;" vertex="1" parent="1">
          <mxGeometry x="360" y="470" width="125" height="30" as="geometry" />
        </mxCell>
        <mxCell id="Vq608xrrPBZyVDfuqfxu-23" value="Login" style="rounded=0;whiteSpace=wrap;html=1;" vertex="1" parent="1">
          <mxGeometry x="360" y="590" width="125" height="30" as="geometry" />
        </mxCell>
        <mxCell id="Vq608xrrPBZyVDfuqfxu-24" value="Signup" style="rounded=0;whiteSpace=wrap;html=1;" vertex="1" parent="1">
          <mxGeometry x="360" y="670" width="125" height="30" as="geometry" />
        </mxCell>
        <mxCell id="Vq608xrrPBZyVDfuqfxu-25" value="" style="endArrow=classic;startArrow=classic;html=1;rounded=0;entryX=0;entryY=0.5;entryDx=0;entryDy=0;" edge="1" parent="1" target="Vq608xrrPBZyVDfuqfxu-14">
          <mxGeometry width="50" height="50" relative="1" as="geometry">
            <mxPoint x="200" y="350" as="sourcePoint" />
            <mxPoint x="480" y="440" as="targetPoint" />
            <Array as="points" />
          </mxGeometry>
        </mxCell>
        <mxCell id="Vq608xrrPBZyVDfuqfxu-29" value="" style="endArrow=classic;startArrow=classic;html=1;rounded=0;" edge="1" parent="1">
          <mxGeometry width="50" height="50" relative="1" as="geometry">
            <mxPoint x="190" y="635" as="sourcePoint" />
            <mxPoint x="350" y="600" as="targetPoint" />
            <Array as="points" />
          </mxGeometry>
        </mxCell>
        <mxCell id="Vq608xrrPBZyVDfuqfxu-30" value="" style="endArrow=classic;startArrow=classic;html=1;rounded=0;entryX=0;entryY=0.5;entryDx=0;entryDy=0;" edge="1" parent="1">
          <mxGeometry width="50" height="50" relative="1" as="geometry">
            <mxPoint x="210" y="380" as="sourcePoint" />
            <mxPoint x="360" y="297.5" as="targetPoint" />
            <Array as="points" />
          </mxGeometry>
        </mxCell>
        <mxCell id="Vq608xrrPBZyVDfuqfxu-31" value="" style="endArrow=classic;startArrow=classic;html=1;rounded=0;entryX=0;entryY=0.5;entryDx=0;entryDy=0;" edge="1" parent="1">
          <mxGeometry width="50" height="50" relative="1" as="geometry">
            <mxPoint x="230" y="380" as="sourcePoint" />
            <mxPoint x="350" y="340" as="targetPoint" />
            <Array as="points" />
          </mxGeometry>
        </mxCell>
        <mxCell id="Vq608xrrPBZyVDfuqfxu-32" value="" style="endArrow=classic;startArrow=classic;html=1;rounded=0;entryX=0;entryY=0.5;entryDx=0;entryDy=0;" edge="1" parent="1">
          <mxGeometry width="50" height="50" relative="1" as="geometry">
            <mxPoint x="210" y="420" as="sourcePoint" />
            <mxPoint x="350" y="480" as="targetPoint" />
            <Array as="points" />
          </mxGeometry>
        </mxCell>
        <mxCell id="Vq608xrrPBZyVDfuqfxu-33" value="" style="endArrow=classic;startArrow=classic;html=1;rounded=0;entryX=0;entryY=0.5;entryDx=0;entryDy=0;" edge="1" parent="1">
          <mxGeometry width="50" height="50" relative="1" as="geometry">
            <mxPoint x="220" y="390" as="sourcePoint" />
            <mxPoint x="350" y="387.5" as="targetPoint" />
            <Array as="points" />
          </mxGeometry>
        </mxCell>
        <mxCell id="Vq608xrrPBZyVDfuqfxu-34" value="" style="endArrow=classic;startArrow=classic;html=1;rounded=0;entryX=0;entryY=0.5;entryDx=0;entryDy=0;" edge="1" parent="1">
          <mxGeometry width="50" height="50" relative="1" as="geometry">
            <mxPoint x="220" y="400" as="sourcePoint" />
            <mxPoint x="350" y="430" as="targetPoint" />
            <Array as="points" />
          </mxGeometry>
        </mxCell>
        <mxCell id="Vq608xrrPBZyVDfuqfxu-36" value="" style="endArrow=classic;startArrow=classic;html=1;rounded=0;" edge="1" parent="1">
          <mxGeometry width="50" height="50" relative="1" as="geometry">
            <mxPoint x="200" y="660" as="sourcePoint" />
            <mxPoint x="350" y="690" as="targetPoint" />
            <Array as="points">
              <mxPoint x="250" y="670" />
            </Array>
          </mxGeometry>
        </mxCell>
        <mxCell id="Vq608xrrPBZyVDfuqfxu-38" value="Generate Reports&amp;nbsp;" style="rounded=0;whiteSpace=wrap;html=1;" vertex="1" parent="1">
          <mxGeometry x="530" y="370" width="125" height="30" as="geometry" />
        </mxCell>
        <mxCell id="Vq608xrrPBZyVDfuqfxu-39" value="Manage Bookings" style="rounded=0;whiteSpace=wrap;html=1;" vertex="1" parent="1">
          <mxGeometry x="530" y="440" width="125" height="30" as="geometry" />
        </mxCell>
        <mxCell id="Vq608xrrPBZyVDfuqfxu-40" value="Manage Halls&amp;nbsp;" style="rounded=0;whiteSpace=wrap;html=1;" vertex="1" parent="1">
          <mxGeometry x="530" y="500" width="125" height="30" as="geometry" />
        </mxCell>
        <mxCell id="Vq608xrrPBZyVDfuqfxu-44" value="" style="shape=waypoint;sketch=0;size=6;pointerEvents=1;points=[];fillColor=default;resizable=0;rotatable=0;perimeter=centerPerimeter;snapToPoint=1;verticalAlign=top;" vertex="1" parent="1">
          <mxGeometry x="655" y="450" width="20" height="20" as="geometry" />
        </mxCell>
        <mxCell id="Vq608xrrPBZyVDfuqfxu-46" value="" style="shape=waypoint;sketch=0;size=6;pointerEvents=1;points=[];fillColor=default;resizable=0;rotatable=0;perimeter=centerPerimeter;snapToPoint=1;verticalAlign=top;" vertex="1" parent="1">
          <mxGeometry x="655" y="500" width="20" height="20" as="geometry" />
        </mxCell>
        <mxCell id="Vq608xrrPBZyVDfuqfxu-50" value="" style="shape=waypoint;sketch=0;size=6;pointerEvents=1;points=[];fillColor=default;resizable=0;rotatable=0;perimeter=centerPerimeter;snapToPoint=1;verticalAlign=top;" vertex="1" parent="1">
          <mxGeometry x="655" y="370" width="20" height="20" as="geometry" />
        </mxCell>
      </root>
    </mxGraphModel>
  </diagram>
</mxfile>
